REM DIRINDEX 1\2,1\3
REM DIRNAME folder01,folder02,folder03
TITLE ""
FILE "CD2Track33.mp3" MP3
  TRACK 01 AUDIO
    TITLE "0:"
    INDEX 01 00:00:00
  TRACK 02 AUDIO
    TITLE "2:cjc102_3876"
    INDEX 01 00:00:29
  TRACK 03 AUDIO
    TITLE "0:"
    INDEX 01 00:01:22
  TRACK 04 AUDIO
    TITLE "3:cjc102_3877"
    INDEX 01 00:01:30
  TRACK 05 AUDIO
    TITLE "0:"
    INDEX 01 00:02:71
  TRACK 06 AUDIO
    TITLE "3:cjc102_3878"
    INDEX 01 00:04:13
  TRACK 07 AUDIO
    TITLE "0:"
    INDEX 01 00:07:66
  TRACK 08 AUDIO
    TITLE "2:cjc102_3879"
    INDEX 01 00:07:68
  TRACK 09 AUDIO
    TITLE "0:"
    INDEX 01 00:08:73
  TRACK 10 AUDIO
    TITLE "3:cjc102_3880"
    INDEX 01 00:10:19
  TRACK 11 AUDIO
    TITLE "0:"
    INDEX 01 00:11:15
  TRACK 12 AUDIO
    TITLE "2:cjc102_3881"
    INDEX 01 00:11:17
  TRACK 13 AUDIO
    TITLE "0:"
    INDEX 01 00:12:40
  TRACK 14 AUDIO
    TITLE "3:cjc102_3882"
    INDEX 01 00:13:22
  TRACK 15 AUDIO
    TITLE "0:"
    INDEX 01 00:13:69
  TRACK 16 AUDIO
    TITLE "2:cjc102_3883"
    INDEX 01 00:13:71
  TRACK 17 AUDIO
    TITLE "0:"
    INDEX 01 00:15:23
  TRACK 18 AUDIO
    TITLE "3:cjc102_3884"
    INDEX 01 00:16:04
  TRACK 19 AUDIO
    TITLE "0:"
    INDEX 01 00:16:63
  TRACK 20 AUDIO
    TITLE "2:cjc102_3885"
    INDEX 01 00:16:67
  TRACK 21 AUDIO
    TITLE "0:"
    INDEX 01 00:18:15
  TRACK 22 AUDIO
    TITLE "3:cjc102_3886"
    INDEX 01 00:19:01
  TRACK 23 AUDIO
    TITLE "0:"
    INDEX 01 00:19:71
  TRACK 24 AUDIO
    TITLE "2:cjc102_3887"
    INDEX 01 00:20:02
  TRACK 25 AUDIO
    TITLE "0:"
    INDEX 01 00:21:37
  TRACK 26 AUDIO
    TITLE "3:cjc102_3888"
    INDEX 01 00:22:42
  TRACK 27 AUDIO
    TITLE "0:"
    INDEX 01 00:23:24
  TRACK 28 AUDIO
    TITLE "2:cjc102_3889"
    INDEX 01 00:23:32
  TRACK 29 AUDIO
    TITLE "0:"
    INDEX 01 00:24:65
  TRACK 30 AUDIO
    TITLE "3:cjc102_3890"
    INDEX 01 00:26:01
  TRACK 31 AUDIO
    TITLE "0:"
    INDEX 01 00:26:73
  TRACK 32 AUDIO
    TITLE "2:cjc102_3891"
    INDEX 01 00:27:12
  TRACK 33 AUDIO
    TITLE "0:"
    INDEX 01 00:28:27
  TRACK 34 AUDIO
    TITLE "3:cjc102_3892"
    INDEX 01 00:29:34
  TRACK 35 AUDIO
    TITLE "0:"
    INDEX 01 00:30:28
  TRACK 36 AUDIO
    TITLE "2:cjc102_3893"
    INDEX 01 00:30:38
  TRACK 37 AUDIO
    TITLE "0:"
    INDEX 01 00:31:61
  TRACK 38 AUDIO
    TITLE "3:cjc102_3894"
    INDEX 01 00:32:72
  TRACK 39 AUDIO
    TITLE "0:"
    INDEX 01 00:33:66
  TRACK 40 AUDIO
    TITLE "2:cjc102_3895"
    INDEX 01 00:34:04
  TRACK 41 AUDIO
    TITLE "0:"
    INDEX 01 00:35:17
  TRACK 42 AUDIO
    TITLE "3:cjc102_3896"
    INDEX 01 00:36:33
  TRACK 43 AUDIO
    TITLE "0:"
    INDEX 01 00:37:26
  TRACK 44 AUDIO
    TITLE "2:cjc102_3897"
    INDEX 01 00:37:50
  TRACK 45 AUDIO
    TITLE "0:"
    INDEX 01 00:38:73
  TRACK 46 AUDIO
    TITLE "3:cjc102_3898"
    INDEX 01 00:39:74
  TRACK 47 AUDIO
    TITLE "0:"
    INDEX 01 00:40:66
  TRACK 48 AUDIO
    TITLE "2:cjc102_3899"
    INDEX 01 00:41:32
  TRACK 49 AUDIO
    TITLE "0:"
    INDEX 01 00:42:57
  TRACK 50 AUDIO
    TITLE "3:cjc102_3900"
    INDEX 01 00:42:74
  TRACK 51 AUDIO
    TITLE "0:"
    INDEX 01 00:44:16
  TRACK 52 AUDIO
    TITLE "2:cjc102_3901"
    INDEX 01 00:44:61
  TRACK 53 AUDIO
    TITLE "0:"
    INDEX 01 00:45:71
  TRACK 54 AUDIO
    TITLE "3:cjc102_3902"
    INDEX 01 00:47:01
  TRACK 55 AUDIO
    TITLE "0:"
    INDEX 01 00:48:14
  TRACK 56 AUDIO
    TITLE "2:cjc102_3903"
    INDEX 01 00:48:22
  TRACK 57 AUDIO
    TITLE "0:"
    INDEX 01 00:49:51
  TRACK 58 AUDIO
    TITLE "3:cjc102_3904"
    INDEX 01 00:50:41
  TRACK 59 AUDIO
    TITLE "0:"
    INDEX 01 00:51:52
  TRACK 60 AUDIO
    TITLE "2:cjc102_3905"
    INDEX 01 00:51:58
  TRACK 61 AUDIO
    TITLE "0:"
    INDEX 01 00:52:67
  TRACK 62 AUDIO
    TITLE "3:cjc102_3906"
    INDEX 01 00:53:55
  TRACK 63 AUDIO
    TITLE "0:"
    INDEX 01 00:54:72
  TRACK 64 AUDIO
    TITLE "2:cjc102_3907"
    INDEX 01 00:55:04
  TRACK 65 AUDIO
    TITLE "0:"
    INDEX 01 00:56:29
  TRACK 66 AUDIO
    TITLE "3:cjc102_3908"
    INDEX 01 00:57:52
  TRACK 67 AUDIO
    TITLE "0:"
    INDEX 01 00:58:60
  TRACK 68 AUDIO
    TITLE "2:cjc102_3909"
    INDEX 01 00:58:62
  TRACK 69 AUDIO
    TITLE "0:"
    INDEX 01 01:00:12
  TRACK 70 AUDIO
    TITLE "3:cjc102_3910"
    INDEX 01 01:01:17
  TRACK 71 AUDIO
    TITLE "0:"
    INDEX 01 01:02:14
  TRACK 72 AUDIO
    TITLE "2:cjc102_3911"
    INDEX 01 01:02:22
  TRACK 73 AUDIO
    TITLE "0:"
    INDEX 01 01:03:35
  TRACK 74 AUDIO
    TITLE "3:cjc102_3912"
    INDEX 01 01:05:66
  TRACK 75 AUDIO
    TITLE "0:"
    INDEX 01 01:07:10
  TRACK 76 AUDIO
    TITLE "2:cjc102_3913"
    INDEX 01 01:07:37
  TRACK 77 AUDIO
    TITLE "0:"
    INDEX 01 01:08:68
  TRACK 78 AUDIO
    TITLE "2:cjc102_3914"
    INDEX 01 01:09:36
  TRACK 79 AUDIO
    TITLE "0:"
    INDEX 01 01:10:73
  TRACK 80 AUDIO
    TITLE "3:cjc102_3915"
    INDEX 01 01:12:09
  TRACK 81 AUDIO
    TITLE "0:"
    INDEX 01 01:13:32
  TRACK 82 AUDIO
    TITLE "2:cjc102_3916"
    INDEX 01 01:13:71
  TRACK 83 AUDIO
    TITLE "0:"
    INDEX 01 01:15:23
  TRACK 84 AUDIO
    TITLE "2:cjc102_3917"
    INDEX 01 01:15:72
  TRACK 85 AUDIO
    TITLE "0:"
    INDEX 01 01:17:32
  TRACK 86 AUDIO
    TITLE "3:cjc102_3918"
    INDEX 01 01:18:43
  TRACK 87 AUDIO
    TITLE "0:"
    INDEX 01 01:19:66
  TRACK 88 AUDIO
    TITLE "2:cjc102_3919"
    INDEX 01 01:20:12
  TRACK 89 AUDIO
    TITLE "0:"
    INDEX 01 01:21:47
  TRACK 90 AUDIO
    TITLE "2:cjc102_3920"
    INDEX 01 01:22:33
  TRACK 91 AUDIO
    TITLE "0:"
    INDEX 01 01:23:69
  TRACK 92 AUDIO
    TITLE "3:cjc102_3921"
    INDEX 01 01:25:70
  TRACK 93 AUDIO
    TITLE "0:"
    INDEX 01 01:27:08
  TRACK 94 AUDIO
    TITLE "2:cjc102_3922"
    INDEX 01 01:27:67
  TRACK 95 AUDIO
    TITLE "0:"
    INDEX 01 01:30:09
  TRACK 96 AUDIO
    TITLE "3:cjc102_3923"
    INDEX 01 01:31:20
  TRACK 97 AUDIO
    TITLE "0:"
    INDEX 01 01:32:47
  TRACK 98 AUDIO
    TITLE "2:cjc102_3924"
    INDEX 01 01:33:11
  TRACK 99 AUDIO
    TITLE "0:"
    INDEX 01 01:35:55
  TRACK 100 AUDIO
    TITLE "3:cjc102_3925"
    INDEX 01 01:37:11
  TRACK 101 AUDIO
    TITLE "0:"
    INDEX 01 01:38:32
  TRACK 102 AUDIO
    TITLE "2:cjc102_3926"
    INDEX 01 01:39:27
  TRACK 103 AUDIO
    TITLE "0:"
    INDEX 01 01:42:65
